<?xml version="1.0" standalone="no"?><!DOCTYPE svg PUBLIC "-//W3C//DTD SVG 1.1//EN" "http://www.w3.org/Graphics/SVG/1.1/DTD/svg11.dtd"><svg t="1607650806065" class="icon" viewBox="0 0 1024 1024" version="1.1" xmlns="http://www.w3.org/2000/svg" p-id="1209" xmlns:xlink="http://www.w3.org/1999/xlink" width="200" height="200"><defs><style type="text/css"></style></defs><path d="M151.4 698.6c-5.5-27-8.1-56.4-8.1-88.3 0-50.5 10.4-102.9 29.2-153-76.3-48.5-121.8-187.9-52.8-162.8 44.3 16.1 90.6 21.4 139 16 8.9-10.5 18.2-20.5 28-30-39.9-53.9-27.3-176.6-8.4-138.2 12.1 25.9 39.3 53 81.6 81.4 46.4-27.6 97.9-43.8 152.4-43.8s106.1 16.2 152.4 43.8c42.2-28.4 69.4-55.6 81.6-81.4 19-38.4 31.6 84.3-8.4 138.2 9.2 9 18.1 18.5 26.6 28.4 52.8 7.8 103.1 3 151-14.4 71.5-26 19.9 125.1-61.6 167.9 17.6 48.5 27.3 99.1 27.3 147.9 0 31.8-2.6 61.3-8.1 88.3 9.2 17.8 14.1 36.7 14.1 56.1 0 113.5-167.9 205.5-375 205.5s-375-92-375-205.5c0.1-19.5 5-38.3 14.2-56.1z" fill="#FFFFFF" p-id="1210"></path><path d="M137.3 762.2a375 198 0 1 0 750 0 375 198 0 1 0-750 0Z" fill="#F9DBD0" p-id="1211"></path><path d="M507 179.9c1.8 0 3.5-0.1 5.3-0.1 97.9 0 186.5 52.4 252.3 129 52.8 7.8 103.1 3 151-14.4 71.5-26 19.9 125.1-61.6 167.9 17.6 48.5 27.3 99.1 27.3 147.9 0 31.8-2.6 61.3-8.1 88.3 1.7 3.3 3.3 6.6 4.7 10l-37.5 18.6c-67.3-69.3-146.7-110.7-238-124-137-20-120-176-76-254 24.5-43.6 18.1-100.1-19.4-169.2z" fill="#525252" p-id="1212"></path><path d="M838.4 738.2l-4.6-4.7c-32.8-33.8-69.1-61.2-107.7-81.3-38.6-20.1-80.7-33.6-125.1-40.1-24.6-3.6-45.7-11.6-62.9-23.8-15.8-11.2-28.3-26-37.1-44-13.8-28.1-18.5-63.9-13.5-103.4 4.2-33.6 15.5-68.6 31-96.1 11.3-20.1 15.5-43.5 12.6-69.7-3.1-26.9-13.8-57.5-31.9-90.9l-7.1-13 14.8-0.3c1.8 0 3.6-0.1 5.5-0.1 93 0 184 46 256.9 129.6 49.8 6.9 98 2 143.3-14.4 28.9-10.5 39.4 5.1 42.6 12.3 9.7 21.9-3 59.7-18.1 87.8-18.8 35-44.7 63.8-72 80.4 16.6 48 25.3 97.6 25.3 143.8 0 31.4-2.6 60.7-7.7 87 1.3 2.6 2.5 5.2 3.6 7.8l3.3 7.8-51.2 25.3zM521.9 189c32.6 65.8 36.8 121.1 12.3 164.6-37.4 66.4-36.9 142.2-17 182.8 15.9 32.4 45 51.9 86.4 57.9 90.8 13.3 171.1 54.3 238.5 121.9l23.9-11.8c-0.3-0.6-0.6-1.1-0.9-1.7l-1.5-2.8 0.6-3.1c5.3-25.9 7.9-55 7.9-86.5 0-46.5-9.3-96.6-26.8-144.9l-2.7-7.4 7-3.7c26.6-14 52.6-42 71.3-76.8 18.6-34.6 22.1-61.6 17.5-72-1-2.3-3.8-8.6-20-2.7-49.1 17.8-101.3 22.8-155.3 14.8l-3.3-0.5-2.2-2.5C690.5 236.5 607.1 192.1 521.9 189z" fill="#525252" p-id="1213"></path><path d="M512.3 969.2c-101.6 0-197.3-21-269.4-59-73.9-39-114.6-91.6-114.6-148s40.7-108.9 114.6-148c72.1-38.1 167.8-59 269.4-59 101.6 0 197.3 21 269.4 59 73.9 39 114.6 91.6 114.6 148s-40.7 108.9-114.6 148c-72.1 38-167.8 59-269.4 59z m0-396c-98.7 0-191.4 20.2-261 57-67.7 35.8-105 82.7-105 132s37.3 96.3 105 132c69.6 36.7 162.2 57 261 57 98.7 0 191.4-20.2 261-57 67.7-35.8 105-82.7 105-132s-37.3-96.3-105-132c-69.6-36.8-162.3-57-261-57z" fill="#525252" p-id="1214"></path><path d="M512.3 975.2c-102.6 0-199.4-22-272.4-62-75.9-41.6-117.6-97.8-117.6-158.5 0-19.8 4.5-39.4 13.5-58.2-4.9-26.2-7.4-55.1-7.4-86.2 0-47.5 9-98.2 26.2-147.3-25-18.8-48.1-47.3-64.5-79.8-6.9-13.7-28.5-60.7-14.7-88.7 3.1-6.4 16-26.3 49.5-14.2 40.1 14.6 82.6 19.9 126.4 15.7 5.3-6.1 10.7-12 16.3-17.7-14.5-25.8-19.4-57.2-21.1-75.1-2.7-29.8-0.2-57.6 6.5-70.8 5.6-11.1 14-12.7 18.4-12.7 8.4 0 15.3 5.3 20.4 15.7l0.1 0.3c10.2 21.7 33.3 45.3 68.7 70.1 48.7-27.3 99.7-41.1 151.7-41.1 52 0 103 13.8 151.7 41.1 35.4-24.8 58.5-48.4 68.7-70.1l0.1-0.3c5.1-10.4 12-15.6 20.4-15.7h0.1c4.5 0 12.7 1.7 18.3 12.7 6.7 13.2 9.2 41 6.5 70.8-1.6 17.8-6.5 49.3-21.1 75.1 5.1 5.3 10.2 10.8 15.1 16.4 48.1 6.3 94.6 1.4 138.2-14.4 34.6-12.6 47.1 8.7 50.2 15.5 4.8 10.9 5.2 25.4 1.1 43.3-3.5 15.5-10.2 32.7-19.4 49.8-18.4 34.2-43.4 62.7-70.1 80.1 15.8 47.2 24.1 95.8 24.1 141.3 0 31-2.5 60-7.4 86.2 8.9 18.8 13.5 38.4 13.5 58.2 0 60.6-41.8 116.9-117.6 158.5-73 40-169.8 62-272.4 62zM105.1 306.5c-0.9 0-1.5 0.1-1.8 0.2-0.5 0.1-0.7 0.2-1.1 1.1-4 8.1-0.2 32.6 14.6 62 16 31.7 39.8 59.7 63.8 74.9l10.3 6.5-4.3 11.4c-18.5 49.2-28.3 100.3-28.3 147.7 0 31.1 2.6 59.8 7.8 85.3l1.1 5.2-2.4 4.7c-8.3 16-12.5 32.6-12.5 49.2 0 24.3 8.9 48.2 26.3 70.8 17.6 22.8 43.1 43.5 75.7 61.3 68.7 37.6 160.3 58.3 258 58.3s189.3-20.7 258-58.3c32.6-17.9 58.1-38.5 75.7-61.3 17.5-22.6 26.3-46.5 26.3-70.8 0-16.6-4.2-33.2-12.5-49.2l-2.4-4.7 1.1-5.2c5.2-25.5 7.8-54.2 7.8-85.3 0-45.8-9.1-95.2-26.4-142.8l-4.5-12.3 11.6-6.1c25.2-13.3 51-41 68.8-74.3 16.7-31.1 21.4-57.6 17.3-66.8-0.5-1.2-0.8-1.3-1.2-1.4-0.8-0.2-4-0.7-11.3 1.9-50 18.2-103.3 23.3-158.3 15.1l-5.5-0.8-3.6-4.2c-8.2-9.6-16.9-18.8-25.7-27.5l-9.3-9.1 7.8-10.5c11.7-15.9 20-42.3 22.5-72.5 1-12.2 1-22.9 0.4-31.5-15.7 22.4-40.7 45-75.7 68.6l-7.9 5.3-8.2-4.9c-46.5-27.7-95.2-41.7-144.8-41.7s-98.2 14-144.8 41.7l-8.2 4.9-7.9-5.3c-35.1-23.6-60-46.2-75.7-68.6-0.6 8.6-0.7 19.3 0.4 31.5 2.6 30.2 10.8 56.6 22.5 72.5l7.8 10.5-9.4 9.1c-9.3 9.1-18.4 18.8-27 29l-3.8 4.5-5.9 0.7c-50.5 5.7-99.6 0-145.8-16.8-4.6-1.7-7.6-2-9.4-2z" fill="#525252" p-id="1215"></path><path d="M512.3 975.2c-102.6 0-199.4-22-272.4-62-75.9-41.6-117.6-97.8-117.6-158.5 0-19.8 4.5-39.4 13.5-58.2-4.9-26.2-7.4-55.1-7.4-86.2 0-47.5 9-98.2 26.2-147.3-25-18.8-48.1-47.3-64.5-79.8-6.9-13.7-28.5-60.7-14.7-88.7 3.1-6.4 16-26.3 49.5-14.2 40.1 14.6 82.6 19.9 126.4 15.7 5.3-6.1 10.7-12 16.3-17.7-14.5-25.8-19.4-57.2-21.1-75.1-2.7-29.8-0.2-57.6 6.5-70.8 5.6-11.1 14-12.7 18.4-12.7 8.4 0 15.3 5.3 20.4 15.7l0.1 0.3c10.2 21.7 33.3 45.3 68.7 70.1 48.7-27.3 99.7-41.1 151.7-41.1 52 0 103 13.8 151.7 41.1 35.4-24.8 58.5-48.4 68.7-70.1l0.1-0.3c5.1-10.4 12-15.6 20.4-15.7h0.1c4.5 0 12.7 1.7 18.3 12.7 6.7 13.2 9.2 41 6.5 70.8-1.6 17.8-6.5 49.3-21.1 75.1 5.1 5.3 10.2 10.8 15.1 16.4 48.1 6.3 94.6 1.4 138.2-14.4 34.6-12.6 47.1 8.7 50.2 15.5 4.8 10.9 5.2 25.4 1.1 43.3-3.5 15.5-10.2 32.7-19.4 49.8-18.4 34.2-43.4 62.7-70.1 80.1 15.8 47.2 24.1 95.8 24.1 141.3 0 31-2.5 60-7.4 86.2 8.9 18.8 13.5 38.4 13.5 58.2 0 60.6-41.8 116.9-117.6 158.5-73 40-169.8 62-272.4 62zM105.1 306.5c-0.9 0-1.5 0.1-1.8 0.2-0.5 0.1-0.7 0.2-1.1 1.1-4 8.1-0.2 32.6 14.6 62 16 31.7 39.8 59.7 63.8 74.9l10.3 6.5-4.3 11.4c-18.5 49.2-28.3 100.3-28.3 147.7 0 31.1 2.6 59.8 7.8 85.3l1.1 5.2-2.4 4.7c-8.3 16-12.5 32.6-12.5 49.2 0 24.3 8.9 48.2 26.3 70.8 17.6 22.8 43.1 43.5 75.7 61.3 68.7 37.6 160.3 58.3 258 58.3s189.3-20.7 258-58.3c32.6-17.9 58.1-38.5 75.7-61.3 17.5-22.6 26.3-46.5 26.3-70.8 0-16.6-4.2-33.2-12.5-49.2l-2.4-4.7 1.1-5.2c5.2-25.5 7.8-54.2 7.8-85.3 0-45.8-9.1-95.2-26.4-142.8l-4.5-12.3 11.6-6.1c25.2-13.3 51-41 68.8-74.3 16.7-31.1 21.4-57.6 17.3-66.8-0.5-1.2-0.8-1.3-1.2-1.4-0.8-0.2-4-0.7-11.3 1.9-50 18.2-103.3 23.3-158.3 15.1l-5.5-0.8-3.6-4.2c-8.2-9.6-16.9-18.8-25.7-27.5l-9.3-9.1 7.8-10.5c11.7-15.9 20-42.3 22.5-72.5 1-12.2 1-22.9 0.4-31.5-15.7 22.4-40.7 45-75.7 68.6l-7.9 5.3-8.2-4.9c-46.5-27.7-95.2-41.7-144.8-41.7s-98.2 14-144.8 41.7l-8.2 4.9-7.9-5.3c-35.1-23.6-60-46.2-75.7-68.6-0.6 8.6-0.7 19.3 0.4 31.5 2.6 30.2 10.8 56.6 22.5 72.5l7.8 10.5-9.4 9.1c-9.3 9.1-18.4 18.8-27 29l-3.8 4.5-5.9 0.7c-50.5 5.7-99.6 0-145.8-16.8-4.6-1.7-7.6-2-9.4-2z" fill="#525252" p-id="1216"></path><path d="M858.1 470.3l-8.4-15.9c26.6-14 52.6-42 71.3-76.8 18.6-34.6 22.1-61.6 17.5-72-1-2.3-3.8-8.6-20-2.7-49.1 17.8-101.3 22.8-155.3 14.8l-3.3-0.5-2.2-2.5C690.5 236.5 607.1 192.1 521.9 189c32.6 65.8 36.8 121.1 12.3 164.6l-15.7-8.8c11.3-20.1 15.5-43.5 12.6-69.7-3.1-26.9-13.8-57.5-31.9-90.9l-7.1-13 14.8-0.3c1.8 0 3.6-0.1 5.5-0.1 93 0 184 46 256.9 129.6 49.8 6.9 98 2 143.3-14.4 28.9-10.5 39.4 5.1 42.6 12.3 9.7 21.9-3 59.7-18.1 87.8-20.6 37.9-49.3 68.6-79 84.2z" fill="#525252" p-id="1217"></path><path d="M319.3 538.2c-51.3 0-93-41.7-93-93s41.7-93 93-93 93 41.7 93 93-41.7 93-93 93z m0-168c-41.4 0-75 33.6-75 75s33.6 75 75 75 75-33.6 75-75-33.7-75-75-75z" fill="#525252" p-id="1218"></path><path d="M449.2 774.2c0 0.1-3.1 8.1-9.2 24.1-7.2 19.9 0.1 41 17 47.5 16.1 6.2 35.7-4.6 43.7-24.2l9.2-24.1" fill="#E6656E" p-id="1219"></path><path d="M454.9 677.7c12 6.9 27.2 2.8 34.2-9.2 6.9-12 7.8-35.9-4.2-42.8-12-6.9-32.2 5.9-39.2 17.8-6.8 12-2.7 27.2 9.2 34.2zM568.9 677.7c12-6.9 16.1-22.2 9.2-34.2-6.9-12-27.2-24.7-39.2-17.8-12 6.9-11.1 30.9-4.2 42.8 7 12 22.3 16.1 34.2 9.2zM608.9 745.7c-3.9-3.1-9.5-2.5-12.7 1.4-19.9 24.8-49.7 39.1-81.7 39.1-33.9 0-65-15.4-85.1-42.4-3-4-8.6-4.8-12.6-1.8s-4.8 8.6-1.8 12.6c6.8 9.2 14.9 17.2 23.9 24.1l-6.4 16.7-0.1 0.1c-8.8 24.3 0.7 49.6 21.7 57.7 4 1.5 8.1 2.3 12.3 2.3 16.9 0 34-12 41.7-30.9l7.8-20.4c37-0.4 71.3-17 94.4-45.8 3.1-3.9 2.5-9.6-1.4-12.7z m-115.7 72.9c-6.3 15.5-21.3 24.3-33.4 19.7-12.5-4.8-18.1-21.5-12.4-37.2l5.1-13.3c4.7 2.7 9.5 5 14.5 7.1l-7.8 19.6c-1.8 4.6 0.4 9.9 5 11.7 1.1 0.4 2.2 0.6 3.3 0.6 3.6 0 7-2.1 8.4-5.7l8.2-20.6c4.9 1.2 9.8 2.2 14.9 2.8l-5.8 15.3z" fill="#525252" p-id="1220"></path><path d="M137.3 762.2a375 198 0 1 0 750 0 375 198 0 1 0-750 0Z" fill="#F9DBD0" p-id="1221"></path><path d="M512.3 969.2c-101.6 0-197.3-21-269.4-59-73.9-39-114.6-91.6-114.6-148s40.7-108.9 114.6-148c72.1-38.1 167.8-59 269.4-59 101.6 0 197.3 21 269.4 59 73.9 39 114.6 91.6 114.6 148s-40.7 108.9-114.6 148c-72.1 38-167.8 59-269.4 59z m0-396c-98.7 0-191.4 20.2-261 57-67.7 35.8-105 82.7-105 132s37.3 96.3 105 132c69.6 36.7 162.2 57 261 57 98.7 0 191.4-20.2 261-57 67.7-35.8 105-82.7 105-132s-37.3-96.3-105-132c-69.6-36.8-162.3-57-261-57z" fill="#525252" p-id="1222"></path><path d="M449.2 774.2c0 0.1-3.1 8.1-9.2 24.1-7.2 19.9 0.1 41 17 47.5 16.1 6.2 35.7-4.6 43.7-24.2l9.2-24.1" fill="#E6656E" p-id="1223"></path><path d="M454.9 677.7c12 6.9 27.2 2.8 34.2-9.2 6.9-12 7.8-35.9-4.2-42.8-12-6.9-32.2 5.9-39.2 17.8-6.8 12-2.7 27.2 9.2 34.2zM568.9 677.7c12-6.9 16.1-22.2 9.2-34.2-6.9-12-27.2-24.7-39.2-17.8-12 6.9-11.1 30.9-4.2 42.8 7 12 22.3 16.1 34.2 9.2zM608.9 745.7c-3.9-3.1-9.5-2.5-12.7 1.4-19.9 24.8-49.7 39.1-81.7 39.1-33.9 0-65-15.4-85.1-42.4-3-4-8.6-4.8-12.6-1.8s-4.8 8.6-1.8 12.6c6.8 9.2 14.9 17.2 23.9 24.1l-6.4 16.7-0.1 0.1c-8.8 24.3 0.7 49.6 21.7 57.7 4 1.5 8.1 2.3 12.3 2.3 16.9 0 34-12 41.7-30.9l7.8-20.4c37-0.4 71.3-17 94.4-45.8 3.1-3.9 2.5-9.6-1.4-12.7z m-115.7 72.9c-6.3 15.5-21.3 24.3-33.4 19.7-12.5-4.8-18.1-21.5-12.4-37.2l5.1-13.3c4.7 2.7 9.5 5 14.5 7.1l-7.8 19.6c-1.8 4.6 0.4 9.9 5 11.7 1.1 0.4 2.2 0.6 3.3 0.6 3.6 0 7-2.1 8.4-5.7l8.2-20.6c4.9 1.2 9.8 2.2 14.9 2.8l-5.8 15.3z" fill="#525252" p-id="1224"></path><path d="M705.3 361.2c46.4 0 84 37.6 84 84s-37.6 84-84 84-84-37.6-84-84 37.6-84 84-84z" fill="#FFFFFF" p-id="1225"></path><path d="M705.3 538.2c-51.3 0-93-41.7-93-93s41.7-93 93-93 93 41.7 93 93-41.7 93-93 93z m0-168c-41.4 0-75 33.6-75 75s33.6 75 75 75 75-33.6 75-75-33.7-75-75-75z" fill="#525252" p-id="1226"></path><path d="M319.3 445.2m-25 0a25 25 0 1 0 50 0 25 25 0 1 0-50 0Z" fill="#525252" p-id="1227"></path><path d="M705.3 445.2m-25 0a25 25 0 1 0 50 0 25 25 0 1 0-50 0Z" fill="#525252" p-id="1228"></path></svg>