<?xml version="1.0" standalone="no"?><!DOCTYPE svg PUBLIC "-//W3C//DTD SVG 1.1//EN" "http://www.w3.org/Graphics/SVG/1.1/DTD/svg11.dtd"><svg t="1594178791067" class="icon" viewBox="0 0 1024 1024" version="1.1" xmlns="http://www.w3.org/2000/svg" p-id="2444" xmlns:xlink="http://www.w3.org/1999/xlink" width="200" height="200"><defs><style type="text/css"></style></defs><path d="M928 480 544 480 544 96c0-16-16-32-32-32s-32 16-32 32l0 384L96 480c-16 0-32 16-32 32s16 32 32 32l384 0 0 384c0 16 16 32 32 32s32-16 32-32L544 544l384 0c16 0 32-16 32-32S944 480 928 480z" p-id="2445" fill="#cdcdcd"></path></svg>