<svg xmlns="http://www.w3.org/2000/svg" viewBox="0 0 1440 320"><path fill="#71d2aa" fill-opacity="0.8" d="M0,160L30,181.3C60,203,120,245,180,245.3C240,245,300,203,360,208C420,213,480,267,540,250.7C600,235,660,149,720,149.3C780,149,840,235,900,256C960,277,1020,235,1080,208C1140,181,1200,171,1260,170.7C1320,171,1380,181,1410,186.7L1440,192L1440,320L1410,320C1380,320,1320,320,1260,320C1200,320,1140,320,1080,320C1020,320,960,320,900,320C840,320,780,320,720,320C660,320,600,320,540,320C480,320,420,320,360,320C300,320,240,320,180,320C120,320,60,320,30,320L0,320Z"></path></svg>
