<?xml version="1.0" standalone="no"?><!DOCTYPE svg PUBLIC "-//W3C//DTD SVG 1.1//EN" "http://www.w3.org/Graphics/SVG/1.1/DTD/svg11.dtd"><svg t="1614075795648" class="icon" viewBox="0 0 1117 1024" version="1.1" xmlns="http://www.w3.org/2000/svg" p-id="1340" width="279.25" height="256" xmlns:xlink="http://www.w3.org/1999/xlink"><defs><style type="text/css"></style></defs><path d="M318.836364 556.962909a92.625455 92.625455 0 0 1-30.859637 39.656727l-135.912727 99.607273-58.042182-14.475636a30.813091 30.813091 0 0 1-22.993454-27.787637l-2.234182-29.835636A30.813091 30.813091 0 0 0 46.545455 596.573091L0 583.540364l39.563636 107.52c6.609455 18.059636 20.945455 31.837091 38.818909 37.422545l74.193455 23.272727-1.256727 241.012364c-0.093091 17.221818 13.451636 31.232 30.161454 31.232h46.685091a30.72 30.72 0 0 0 29.928727-34.350545l-11.031272-107.52a30.813091 30.813091 0 0 1 26.577454-34.071273l320.558546-36.957091c22.202182-2.56 42.728727-13.498182 57.576727-30.72l205.405091-238.498909 3.863273 47.941818-46.871273 65.629091 86.714182 3.118545c13.218909 0.465455 25.134545-7.912727 29.509818-20.712727l29.975273-87.970909a31.790545 31.790545 0 0 0-4.189091-28.672l-81.640728-114.176 67.677091-20.200727a30.72 30.72 0 0 0 21.038546-23.086546l34.071273-158.068363 78.42909-7.866182L1117.090909 30.906182l-78.615273 115.2-51.013818-2.513455-129.629091-27.554909L862.673455 0l-55.854546 105.192727-231.330909-47.150545a59.904 59.904 0 0 0-67.211636 36.770909l-189.44 462.149818z" p-id="1341" data-spm-anchor-id="a313x.7781069.0.i0" class="selected" fill="white"></path></svg>
