<svg xmlns="http://www.w3.org/2000/svg" xmlns:xlink="http://www.w3.org/1999/xlink" width="480" height="480" viewBox="0 0 480 480"><defs><linearGradient id="a" x1="-0.392" y1="1.114" x2="0.5" y2="0.396" gradientUnits="objectBoundingBox"><stop offset="0" stop-color="#fff" stop-opacity="0"/><stop offset="1" stop-color="#ebedf5"/></linearGradient><linearGradient id="b" x1="-0.906" y1="1.646" x2="0.636" y2="0.061" xlink:href="#a"/><linearGradient id="c" x1="-0.109" y1="1.931" x2="0.736" y2="0.141" xlink:href="#a"/><linearGradient id="d" x1="-0.02" x2="1.026" gradientUnits="objectBoundingBox"><stop offset="0" stop-color="#ebedf5"/><stop offset="1" stop-color="#909aa9"/></linearGradient></defs><g transform="translate(0 -12)"><circle cx="184" cy="184" r="184" transform="translate(56 68)" fill="#f3f3fa"/><path d="M2989,62c-10.838-4.087-16.3,0-32,0-26.51,0-48-8.954-48-20s21.49-20,48-20h256a16,16,0,1,1,0,32s-15.5,0-27.5,3S3165,68.714,3165,68.714,3127.392,110,3081,110c-38.041,0-70.176-13.246-80.647-31.653C2998.219,74.6,2999.838,66.087,2989,62Z" transform="translate(-2837 326)" fill="#d1d6e2"/><ellipse cx="58" cy="12.5" rx="58" ry="12.5" transform="translate(264 351)" fill="#c0c9db"/><ellipse cx="58" cy="12.5" rx="58" ry="12.5" transform="translate(88 351)" fill="#c0c9db"/><g transform="translate(102 7)"><g transform="translate(258.49 305.55)"><path d="M525.021,66.584a31.23,31.23,0,0,1,7.085,10.425c2.772,6.6,5.877,13.459,8.386,14.78s3.695,10.033-8.053,8.185S525.021,66.584,525.021,66.584Z" transform="translate(-524.241 -66.584)" fill="#fff"/><path d="M525.494,68.3a32.341,32.341,0,0,1,6.953,16.851c.847,8.628,2.933,13.332,5.151,13.016a12.659,12.659,0,0,1-5.991-.025C528.092,97.37,524.074,68.412,525.494,68.3Z" transform="translate(-523.763 -65.64)" fill="url(#a)"/></g><path d="M537.949,131.675a34.415,34.415,0,0,0,14.137,1.09c6.9-.975,8.727-13.747-.647-15.059-7.267-1.02-6.026-12.167-7.366-22.433s-6.56-18.848-7.364-23.026,4.251-9.233,3.614-18.062c-.652-9.065-6.3-10.479-8.307-10.074s-3.609,2.392-6.154,3.47-6.292-.673-11.112,1.619-9.377,7.547-9.377,7.547c-2.009,2.561.4,10.648-.938,14.691s-6.694,39.223-6.56,49.062,6.426,16.715,19.952,18.467,19.419-.606,19.856-4.448c.279-2.443,1.905-11.053-7.8-12.535-4.83-.74-7.363-1.347-7.363-1.347" transform="translate(-279.872 225.445)" fill="#fff"/><path d="M519.206,44.961s.961-1.578,1.726-1.594c1.313-.026,2.7,1.631,2.7,1.631S519.249,46.731,519.206,44.961Z" transform="translate(-268.363 226.187)" fill="#757f95"/><path d="M522.077,37.922c-2.054-.536-2.278,2.085-2.278,2.085s-2.89-.313-2.6,1.743c.357,2.566,5.831,2.443,5.831,2.443S524.583,38.578,522.077,37.922Z" transform="translate(-269.464 223.151)" fill="#757f95"/><path d="M505.743,52.715s-6.088-1.338-6.755,3.318,4.181,7.509,7.656.6" transform="translate(-279.292 231.235)" fill="#fff"/><path d="M503.084,74.624s-1.45,17.9,1.1,22.385c2.3,4.044,10.662,5.138,16.755,4.63a25.038,25.038,0,0,0,6.013-1.246c6.068-2.157,2.831-6.2,0-8.893s-3.738-10.346-8.593-14.5" transform="translate(-276.501 243.626)" fill="url(#b)"/><path d="M514.078,48.635a.6.6,0,0,0-.522.31v0l-.009.014a4.814,4.814,0,0,1-3.228,2.322l-.019,0,0,0a.6.6,0,0,0-.509.5l-.011,0-.406,1.078s.341-.014.842-.088l.057-.307.11-.584v.865c.188-.031.389-.073.6-.121v-.747l.064.454.037.268a5.609,5.609,0,0,0,2.386-1.138,4.083,4.083,0,0,0,1.152-1.977c.04-.155.054-.248.054-.248A.6.6,0,0,0,514.078,48.635Z" transform="translate(-273.668 229.087)" fill="#757f95"/><path d="M531.516,76.393c-3.6-3.507-6.766.555-6.766.555s-6.2-4.888-8.5.26C513.373,83.63,528.051,94,528.051,94S535.2,79.982,531.516,76.393Z" transform="translate(-270.216 243.516)" fill="url(#c)"/><path d="M504.118,75.051s5.02,15.274,7.571,19.76c3.236,5.688,9.468,8.51,15.533,6.355s2.831-5.527,0-8.223S523.148,81.155,518.293,77" transform="translate(-277.496 242.564)" fill="#fff"/></g><ellipse cx="32.5" cy="12.5" rx="32.5" ry="12.5" transform="translate(154 348)" fill="#c0c9db"/><ellipse cx="16.5" cy="6.5" rx="16.5" ry="6.5" transform="translate(167 379)" fill="#c0c9db"/><ellipse cx="8.5" cy="6.5" rx="8.5" ry="6.5" transform="translate(191 375)" fill="#c0c9db"/><ellipse cx="9" cy="4" rx="9" ry="4" transform="translate(182 388)" fill="#c0c9db"/><ellipse cx="8" cy="4" rx="8" ry="4" transform="translate(208 396)" fill="#c0c9db"/></g><g transform="translate(7.725)"><path d="M1.5,0,3,6H0Z" transform="matrix(-0.035, 0.999, -0.999, -0.035, 344.55, 154.641)" fill="#8f9aa9"/><path d="M1.5,0,3,6H0Z" transform="matrix(0.53, 0.848, -0.848, 0.53, 342.41, 151.173)" fill="#8f9aa9"/><g transform="translate(4 16)"><g transform="translate(-3 -5.072)"><path d="M2911.425,29.282c-.8-1.45-1.25-5.025.2-5.828s4.245,1.47,5.048,2.919l.831,1.5v-.419c0-1.657,1.344-5,3-5s3,3.344,3,5v11h-5.932l-.813.451Z" transform="translate(-2137.615 1758.009) rotate(-34)" fill="#8f9aa9"/><path d="M2911.612,58.5c-1.417-1.125-3.542-1.958-2.167-4.5s5.25-2.667,8.667-4.667a22.194,22.194,0,0,1,2-1.042c0-.1,0-.194,0-.292,0-5.522,5.373-10,12-10,2.744,0,6.565,5.071,9.5,5a5.012,5.012,0,0,0,2.79-1.1c-5.818-.692-10.29-4.86-10.29-9.9,0-5.523,5.372-10,12-10s12,4.477,12,10c0,5.254-4.863,9.562-11.043,9.969-.652,5.721-8.606,16.031-14.957,16.031a12.547,12.547,0,0,1-10.483-5.13,23.54,23.54,0,0,1-4.516,4.3c-1.887,1.23-3.056,1.9-4.037,1.9A2.286,2.286,0,0,1,2911.612,58.5Z" transform="translate(-2619.111 114)" fill="#747f95"/></g><path d="M3049,28a6,6,0,1,1,6,6A6,6,0,0,1,3049,28Zm-28,0a6,6,0,1,1,6,6A6,6,0,0,1,3021,28Zm-28,0a6,6,0,1,1,6,6A6,6,0,0,1,2993,28Zm-28,0a6,6,0,1,1,6,6A6,6,0,0,1,2965,28Zm-28,0a6,6,0,1,1,6,6A6,6,0,0,1,2937,28Zm-28,0a6,6,0,1,1,6,6A6,6,0,0,1,2909,28Z" transform="translate(-2793 126)" fill="url(#d)"/></g><circle cx="2" cy="2" r="2" transform="translate(330 152)" fill="#fff"/></g><g transform="translate(-28)"><g transform="translate(-8 56)"><path d="M28,0,56,40H0Z" transform="translate(168 216)" fill="#e1e6ef"/><path d="M11.4,0,40,40H14.417l9.167-13.5H16.417l4.917-8.25Z" transform="translate(184 216)" fill="#cdd3df"/></g><g transform="translate(0 40)"><path d="M20,0,40,32H0Z" transform="translate(168 216)" fill="#e1e6ef"/><path d="M20,0,40,32H32.417Z" transform="translate(168 216)" fill="#cdd3df"/></g><g transform="translate(8 32)"><path d="M12,0,24,16H0Z" transform="translate(168 216)" fill="#e1e6ef"/><path d="M27.969,0,40,16H36Z" transform="translate(152 216)" fill="#cdd3df"/></g><rect width="8" height="32" transform="translate(184 312)" fill="#e1e6ef"/><path d="M.5,0H4V32H0V9.75H-5.833Z" transform="translate(190 312)" fill="#cdd3df"/></g><g transform="translate(-64 40)"><g transform="translate(160 264)"><path d="M18.5,0,37,27H0Z" fill="#e1e6ef"/><path d="M11.4,0,30.2,27.094H19.883Z" transform="translate(6.867)" fill="#cdd3df"/></g><g transform="translate(165.333 253.333)"><path d="M13.5,0,27,22H0Z" transform="translate(-0.333 -0.333)" fill="#e1e6ef"/><path d="M20,0,33.333,21.792h-8Z" transform="translate(-6.667)" fill="#cdd3df"/></g><g transform="translate(170.667 248)"><path d="M8,0l8,11H0Z" transform="translate(0.333)" fill="#e1e6ef"/><path d="M28.354,0l8.031,11.094H30.76Z" transform="translate(-19.99)" fill="#cdd3df"/></g><rect width="5" height="21" transform="translate(179 291)" fill="#cdd3df"/><rect width="5" height="21" transform="translate(176 291)" fill="#e1e6ef"/></g><g transform="translate(138.969 300.906)"><path d="M39.323.219,28.354,11.094h5.625l8.094-4.125Z" transform="translate(-28.354)" fill="#cdd3df"/></g><g transform="translate(130.938 317)"><path d="M18.5,0,37,27H0Z" fill="#e1e6ef"/><path d="M11.4,0,30.2,27.094H19.883Z" transform="translate(6.867)" fill="#cdd3df"/></g><g transform="translate(136.271 306.333)"><path d="M13.5,0,27,22H0Z" transform="translate(-0.333 -0.333)" fill="#e1e6ef"/><path d="M20,0,33.333,21.792h-8Z" transform="translate(-6.667)" fill="#cdd3df"/></g><rect width="5" height="21" transform="translate(149.938 344)" fill="#cdd3df"/><rect width="5" height="21" transform="translate(146.938 344)" fill="#e1e6ef"/><path d="M8,0l8,11H0Z" transform="translate(141.938 301)" fill="#e1e6ef"/><path d="M28.354,0l8.031,11.094h-4.25a43.253,43.253,0,0,1-2.643-5.848A23.947,23.947,0,0,1,28.354,0Z" transform="translate(121.615 301)" fill="#cdd3df"/><g transform="translate(0 8)"><g transform="translate(-8 56)"><path d="M28,0,56,40H0Z" transform="translate(168 216)" fill="#e1e6ef"/><path d="M11.4,0,40,40H24Z" transform="translate(184 216)" fill="#cdd3df"/></g><g transform="translate(0 40)"><path d="M20,0,40,32H0Z" transform="translate(168 216)" fill="#e1e6ef"/><path d="M20,0,40,32H28.625Z" transform="translate(168 216)" fill="#cdd3df"/></g><g transform="translate(8 32)"><path d="M12,0,24,16H0Z" transform="translate(168 216)" fill="#e1e6ef"/><path d="M27.969,0,40,16H32Z" transform="translate(152 216)" fill="#cdd3df"/></g><rect width="8" height="32" transform="translate(188 312)" fill="#cdd3df"/><rect width="8" height="32" transform="translate(184 312)" fill="#e1e6ef"/></g><path d="M791.928,44.042a21.752,21.752,0,0,1-9.116,1.905c-8.733,0-15.812-4.666-15.812-10.421,0-5.512,6.495-10.025,14.716-10.4C785.006,19.217,793.6,15,803.684,15A30.025,30.025,0,0,1,820.7,19.848a23.511,23.511,0,0,1,4.493-.427c8.733,0,15.812,4.666,15.812,10.421s-7.079,10.421-15.812,10.421a24.011,24.011,0,0,1-2.544-.134c.01.149.015.3.015.45,0,5.755-7.08,10.421-15.812,10.421C799.955,51,794.094,48.1,791.928,44.042Z" transform="translate(-689 96)" fill="#fff"/><path d="M780.811,31.135a12.024,12.024,0,0,1-5.051,1.058C770.922,32.193,767,29.6,767,26.4c0-3.062,3.6-5.57,8.153-5.776C776.976,17.343,781.738,15,787.325,15a16.6,16.6,0,0,1,9.425,2.693,12.993,12.993,0,0,1,2.489-.237c4.839,0,8.761,2.592,8.761,5.79s-3.922,5.789-8.761,5.789a13.267,13.267,0,0,1-1.41-.075c.005.083.008.166.008.25,0,3.2-3.922,5.789-8.761,5.789C785.259,35,782.012,33.386,780.811,31.135Z" transform="translate(-566 233)" fill="#fff"/><path d="M776.432,26.294a8.042,8.042,0,0,1-3.449.741c-3.3,0-5.983-1.814-5.983-4.052,0-2.144,2.458-3.9,5.568-4.043,1.245-2.3,4.5-3.939,8.312-3.939a11.139,11.139,0,0,1,6.437,1.885,8.664,8.664,0,0,1,1.7-.166c3.3,0,5.983,1.815,5.983,4.053s-2.679,4.052-5.983,4.052a8.841,8.841,0,0,1-.963-.052c0,.058.005.116.005.175,0,2.238-2.679,4.052-5.983,4.052C779.47,29,777.252,27.87,776.432,26.294Z" transform="translate(-658 208)" fill="#fff"/><path d="M776.432,26.294a8.042,8.042,0,0,1-3.449.741c-3.3,0-5.983-1.814-5.983-4.052,0-2.144,2.458-3.9,5.568-4.043,1.245-2.3,4.5-3.939,8.312-3.939a11.139,11.139,0,0,1,6.437,1.885,8.664,8.664,0,0,1,1.7-.166c3.3,0,5.983,1.815,5.983,4.053s-2.679,4.052-5.983,4.052a8.841,8.841,0,0,1-.963-.052c0,.058.005.116.005.175,0,2.238-2.679,4.052-5.983,4.052C779.47,29,777.252,27.87,776.432,26.294Z" transform="translate(-658 208)" fill="#fff"/><path d="M791.928,44.042a21.752,21.752,0,0,1-9.116,1.905c-8.733,0-15.812-4.666-15.812-10.421,0-5.512,6.495-10.025,14.716-10.4C785.006,19.217,793.6,15,803.684,15A30.025,30.025,0,0,1,820.7,19.848a23.511,23.511,0,0,1,4.493-.427c8.733,0,15.812,4.666,15.812,10.421s-7.079,10.421-15.812,10.421a24.011,24.011,0,0,1-2.544-.134c.01.149.015.3.015.45,0,5.755-7.08,10.421-15.812,10.421C799.955,51,794.094,48.1,791.928,44.042Z" transform="translate(-417 141)" fill="#fff"/><path d="M791.928,44.042a21.752,21.752,0,0,1-9.116,1.905c-8.733,0-15.812-4.666-15.812-10.421,0-5.512,6.495-10.025,14.716-10.4C785.006,19.217,793.6,15,803.684,15A30.025,30.025,0,0,1,820.7,19.848a23.511,23.511,0,0,1,4.493-.427c8.733,0,15.812,4.666,15.812,10.421s-7.079,10.421-15.812,10.421a24.011,24.011,0,0,1-2.544-.134c.01.149.015.3.015.45,0,5.755-7.08,10.421-15.812,10.421C799.955,51,794.094,48.1,791.928,44.042Z" transform="translate(-535 81)" fill="#fff"/><path d="M780.811,31.135a12.024,12.024,0,0,1-5.051,1.058C770.922,32.193,767,29.6,767,26.4c0-3.062,3.6-5.57,8.153-5.776C776.976,17.343,781.738,15,787.325,15a16.6,16.6,0,0,1,9.425,2.693,12.993,12.993,0,0,1,2.489-.237c4.839,0,8.761,2.592,8.761,5.79s-3.922,5.789-8.761,5.789a13.267,13.267,0,0,1-1.41-.075c.005.083.008.166.008.25,0,3.2-3.922,5.789-8.761,5.789C785.259,35,782.012,33.386,780.811,31.135Z" transform="translate(-502 195)" fill="#fff"/></svg>