<?xml version="1.0" standalone="no"?><!DOCTYPE svg PUBLIC "-//W3C//DTD SVG 1.1//EN" "http://www.w3.org/Graphics/SVG/1.1/DTD/svg11.dtd"><svg t="1594362158181" class="icon" viewBox="0 0 1024 1024" version="1.1" xmlns="http://www.w3.org/2000/svg" p-id="2449" xmlns:xlink="http://www.w3.org/1999/xlink" width="200" height="200"><defs><style type="text/css"></style></defs><path d="M826.785185 944.355556H183.940741c-62.577778 0-113.777778-51.2-113.777778-113.777778V189.62963c0-62.577778 51.2-113.777778 113.777778-113.777778h640.948148c62.577778 0 113.777778 51.2 113.777778 113.777778v640.948148c1.896296 62.577778-49.303704 113.777778-111.881482 113.777778zM183.940741 113.777778c-41.718519 0-75.851852 34.133333-75.851852 75.851852v640.948148c0 41.718519 34.133333 75.851852 75.851852 75.851852h640.948148c41.718519 0 75.851852-34.133333 75.851852-75.851852V189.62963c0-41.718519-34.133333-75.851852-75.851852-75.851852H183.940741z" fill="#e6e6e6" p-id="2450"></path><path d="M676.977778 944.355556c-5.688889 0-9.481481-1.896296-13.274074-5.688889L329.955556 614.4 109.985185 834.37037c-7.585185 7.585185-18.962963 7.585185-26.548148 0s-7.585185-18.962963 0-26.548148l233.244444-233.244444c7.585185-7.585185 18.962963-7.585185 26.548149 0l348.918518 337.540741c7.585185 7.585185 7.585185 18.962963 0 26.548148-3.792593 3.792593-9.481481 5.688889-15.17037 5.688889z" fill="#e6e6e6" p-id="2451"></path><path d="M458.903704 730.074074c-3.792593 0-9.481481-1.896296-13.274074-5.688889-7.585185-7.585185-7.585185-18.962963-1.896297-26.548148L705.422222 417.185185c3.792593-3.792593 7.585185-5.688889 13.274074-5.688889 5.688889 0 9.481481 1.896296 13.274074 5.688889l195.318519 185.837037c7.585185 7.585185 7.585185 18.962963 0 26.548148s-18.962963 7.585185-26.548148 0l-182.044445-172.562963L474.074074 724.385185c-3.792593 3.792593-9.481481 5.688889-15.17037 5.688889zM282.548148 420.977778c-53.096296 0-98.607407-43.614815-98.607407-98.607408 0-53.096296 43.614815-98.607407 98.607407-98.607407s98.607407 43.614815 98.607408 98.607407c0 54.992593-45.511111 98.607407-98.607408 98.607408z m0-159.288889c-32.237037 0-60.681481 26.548148-60.681481 60.681481s26.548148 60.681481 60.681481 60.681482 60.681481-26.548148 60.681482-60.681482-28.444444-60.681481-60.681482-60.681481z" fill="#e6e6e6" p-id="2452"></path></svg>