<?xml version="1.0" standalone="no"?><!DOCTYPE svg PUBLIC "-//W3C//DTD SVG 1.1//EN" "http://www.w3.org/Graphics/SVG/1.1/DTD/svg11.dtd"><svg t="1579841104923" class="icon" viewBox="0 0 1024 1024" version="1.1" xmlns="http://www.w3.org/2000/svg" p-id="3502" xmlns:xlink="http://www.w3.org/1999/xlink" width="200" height="200"><defs><style type="text/css"></style></defs><path d="M354.8 439.6c-28.9 0-52.2-23.4-52.2-52.2 0-28.9 23.4-52.2 52.2-52.2 28.9 0 52.2 23.4 52.2 52.2 0 28.8-23.4 52.2-52.2 52.2zM206.7 208.1h609.5c24 0 43.5 19.5 43.5 43.5v522.5c0 24-19.5 43.5-43.5 43.5H206.7c-24 0-43.5-19.5-43.5-43.5V251.7c0-24.1 19.5-43.6 43.5-43.6z m609.6 425.7V273.4c0-12-9.7-21.8-21.8-21.8h-566c-12 0-21.8 9.7-21.8 21.8V741l179.4-215.2c7.7-9.2 21.4-10.5 30.7-2.8 2.2 1.8 4 4.1 5.4 6.7L511.5 701l163.2-256.4c6.5-10.1 19.9-13.1 30.1-6.7 3.1 2 5.6 4.6 7.4 7.8l104.1 188.1z" p-id="3503" data-spm-anchor-id="a313x.7781069.0.i3" class="selected" fill="#1951fc"></path></svg>